<svg xmlns="http://www.w3.org/2000/svg" viewBox="0 0 430 80" role="img" aria-labelledby="lockup-title lockup-desc">
  <title id="lockup-title">Pixel Wisdom</title>
  <desc id="lockup-desc">The Pixel Wisdom Resolve mark with wordmark.</desc>
  <g>
    <path d="M14 8h34a6 6 0 0 1 6 6v12H28v26H14a6 6 0 0 1-6-6V14a6 6 0 0 1 6-6Z" fill="#155EEF"/>
    <path d="M58 28h8a6 6 0 0 1 6 6v32a6 6 0 0 1-6 6H32a6 6 0 0 1-6-6V54h26V34a6 6 0 0 1 6-6Z" fill="#101828"/>
    <rect x="34" y="34" width="12" height="12" rx="3" fill="#47CD89"/>
  </g>
  <text x="101" y="52" fill="#101828" font-family="Onest, Avenir Next, Helvetica, sans-serif" font-size="40" letter-spacing="-1.8">
    <tspan font-weight="650">Pixel</tspan><tspan font-weight="500"> Wisdom</tspan>
  </text>
</svg>
