<svg xmlns="http://www.w3.org/2000/svg" viewBox="0 0 80 80" role="img" aria-label="Pixel Wisdom">
  <rect x="2" y="2" width="76" height="76" rx="18" fill="#F9FAFB"/>
  <g transform="translate(4 4) scale(.9)">
    <path d="M14 8h34a6 6 0 0 1 6 6v12H28v26H14a6 6 0 0 1-6-6V14a6 6 0 0 1 6-6Z" fill="#155EEF"/>
    <path d="M58 28h8a6 6 0 0 1 6 6v32a6 6 0 0 1-6 6H32a6 6 0 0 1-6-6V54h26V34a6 6 0 0 1 6-6Z" fill="#101828"/>
    <rect x="34" y="34" width="12" height="12" rx="3" fill="#47CD89"/>
  </g>
</svg>
